<svg xmlns="http://www.w3.org/2000/svg" width="249.95" height="250" viewBox="0 0 249.95 250">
  <g id="_6612525_preview" data-name="6612525_preview" transform="translate(0 250)">
    <path id="Caminho_1" data-name="Caminho 1" d="M118.8-247.1l-3.3,2.9v36.4l3.3,2.9A10.051,10.051,0,0,0,125-202a10.051,10.051,0,0,0,6.2-2.9l3.3-2.9v-36.4l-3.3-2.9A10.05,10.05,0,0,0,125-250,10.05,10.05,0,0,0,118.8-247.1Z" fill="#ffcd00"/>
    <path id="Caminho_2" data-name="Caminho 2" d="M61.9-232.7a10.968,10.968,0,0,0-3.9,8.3c0,2.7,13.4,27,17.2,31,5.6,6.1,15.8,1.8,15.8-6.6,0-3.6-13.6-28.2-17.6-31.8C70.6-234.3,64.6-234.8,61.9-232.7Z" fill="#ffcd00"/>
    <path id="Caminho_3" data-name="Caminho 3" d="M176.6-231.8c-1.4,1.3-5.9,8.2-10.1,15.5-8.5,14.9-9.3,18.6-5,22.8a9.513,9.513,0,0,0,13.2.2c3.6-3.7,17.3-28.2,17.3-31.1,0-3.4-2.4-8.2-4.5-9C184-234.7,179.1-234,176.6-231.8Z" fill="#ffcd00"/>
    <path id="Caminho_4" data-name="Caminho 4" d="M20.5-190.8a12.1,12.1,0,0,0-3.2,2.6c-1.8,2.2-1.6,8.3.2,10.9.8,1.2,7.8,5.8,15.4,10.2,14.2,8.2,17.8,9.4,22.3,7,2.6-1.4,4.8-6.7,4.1-10.1-.7-3.7-3.1-5.6-17.9-14.2C28.2-192,24.7-193.1,20.5-190.8Z" fill="#ffcd00"/>
    <path id="Caminho_5" data-name="Caminho 5" d="M108.2-190A67.252,67.252,0,0,0,65.4-94.4c16.7,32.9,57.9,46,90.4,28.9,48.2-25.3,48.2-93.7,0-119A68.854,68.854,0,0,0,108.2-190ZM89-130.8c0,19.8.8,23.4,5.6,25.4,4.3,1.8,9.6,1,12.1-1.8,1.6-1.8,1.8-4.3,2.1-20.9l.3-18.9H121v18.2c-.1,23.6-1.3,27.3-10.5,32.1-3,1.5-5.9,2-11.6,2.1-9.3,0-15.1-2.8-18.6-8.9-2.1-3.8-2.3-5.1-2.3-23.8V-147H89Zm53.9-.5c2.7,8.7,5.4,17.4,5.9,19.3.6,2.2,1.1,2.9,1.5,2,.3-.8,2.9-9.4,5.9-19l5.3-17.5,6.2-.3,6.1-.3L165-121.3l-8.8,25.8-6.3.3-6.4.3L134.8-121l-8.6-26h11.7Z" fill="#ffcd00"/>
    <path id="Caminho_6" data-name="Caminho 6" d="M208.5-184.4c-7.1,4.2-14,8.5-15.1,9.6-6.1,5.6-1.8,15.8,6.6,15.8,3.7,0,30.1-14.9,32.5-18.3,1.8-2.6,1.9-8.6.2-10.8a11.181,11.181,0,0,0-8.4-3.9C222.7-192,216.2-188.8,208.5-184.4Z" fill="#ffcd00"/>
    <path id="Caminho_7" data-name="Caminho 7" d="M7.3-134.3c-3.2.6-7.3,5.9-7.3,9.4,0,1.8,1.1,4.1,2.9,6.1l2.9,3.3H42.2l2.9-3.3c3.8-4.2,3.8-8.2,0-12.4l-2.9-3.3-16.4-.2C16.9-134.7,8.5-134.6,7.3-134.3Z" fill="#ffcd00"/>
    <path id="Caminho_8" data-name="Caminho 8" d="M209.3-134.3c-3.2.6-7.3,5.9-7.3,9.4,0,1.8,1.1,4.1,2.9,6.1l2.9,3.3h36.4l2.9-3.3c3.8-4.2,3.8-8.2,0-12.4l-2.9-3.3-16.4-.2C218.9-134.7,210.5-134.6,209.3-134.3Z" fill="#ffcd00"/>
    <path id="Caminho_9" data-name="Caminho 9" d="M33.5-83.4C18.5-74.8,16-72.4,16-67.2c.1,5.6,3.8,9.2,9.6,9.2,2.7,0,27-13.4,31-17.2,4.2-3.8,3.6-11.2-1.1-14.2C51-92.3,47.2-91.3,33.5-83.4Z" fill="#ffcd00"/>
    <path id="Caminho_10" data-name="Caminho 10" d="M194.7-89.9c-2.5,1.5-4.6,6.8-4,10.1a10.385,10.385,0,0,0,2.7,4.6c4,3.8,28.3,17.2,31,17.2,3.4,0,8.2-2.4,9-4.5,1.1-2.9.6-8-.9-10.2-.8-1.2-7.8-5.8-15.4-10.2C202.9-91.1,198.9-92.4,194.7-89.9Z" fill="#ffcd00"/>
    <path id="Caminho_11" data-name="Caminho 11" d="M79.4-59.3c-3.2.6-5.5,3.6-13.8,17.9C57.7-27.8,56.9-25,59.5-20.1c1.6,3.3,3.3,4.1,8,4.1,4.9,0,7.5-2.8,16-17.7,7.6-13.4,8.7-17.1,6.4-21.5-.9-1.6-7.1-5.2-8.1-4.7A15.6,15.6,0,0,1,79.4-59.3Z" fill="#ffcd00"/>
    <path id="Caminho_12" data-name="Caminho 12" d="M165-58.9a9.417,9.417,0,0,0-6,8.7c0,3.9,14.7,30.2,18.3,32.7a10.1,10.1,0,0,0,12.1-1.1c4.4-4.4,3.6-7.9-5-22.8-4.1-7.2-8.5-14.1-9.7-15.2A9.156,9.156,0,0,0,165-58.9Z" fill="#ffcd00"/>
    <path id="Caminho_13" data-name="Caminho 13" d="M118.8-45.1l-3.3,2.9V-5.8l3.3,2.9A10.051,10.051,0,0,0,125,0a10.051,10.051,0,0,0,6.2-2.9l3.3-2.9V-42.2l-3.3-2.9A10.051,10.051,0,0,0,125-48,10.051,10.051,0,0,0,118.8-45.1Z" fill="#ffcd00"/>
  </g>
</svg>
