<?xml version="1.0" encoding="iso-8859-1"?>
<!-- Generator: Adobe Illustrator 19.0.0, SVG Export Plug-In . SVG Version: 6.00 Build 0)  -->
<svg version="1.1" id="Capa_1" xmlns="http://www.w3.org/2000/svg" xmlns:xlink="http://www.w3.org/1999/xlink" x="0px" y="0px"
	 viewBox="0 0 512 512" style="enable-background:new 0 0 512 512;" xml:space="preserve">
<path style="fill:#E0ECEF;" d="M256,15l-63.982,241L256,497c133.101,0,241-107.899,241-241S389.101,15,256,15z"/>
<path style="fill:#FFFFFF;" d="M15,256c0,133.101,107.899,241,241,241V15C122.899,15,15,122.899,15,256z"/>
<path style="fill:#B8C5C8;" d="M497,271v-30h-45.569c-3.253-42.785-20.309-81.769-46.706-112.513l32.293-32.293l-21.213-21.213
	l-32.293,32.293C352.769,80.878,313.785,63.822,271,60.569V15h-15l-10,60l10,45h15V90.685c11.871,1.068,23.389,3.38,34.413,6.824
	l-11.226,27.103l27.717,11.48l11.208-27.058c10.407,5.483,20.166,12.035,29.125,19.516l-20.485,20.485l21.213,21.213l20.485-20.485
	c7.481,8.96,14.033,18.718,19.516,29.125l-27.058,11.208l11.48,27.717l27.103-11.226c3.444,11.024,5.756,22.542,6.824,34.413H392v30
	h29.321c-1.053,11.779-3.341,23.303-6.805,34.424l-27.129-11.237l-11.48,27.717l27.103,11.226
	c-5.425,10.287-11.967,20.039-19.559,29.108l-20.677-20.677l-21.213,21.213l74.244,74.245l21.213-21.213l-32.277-32.277
	c27.322-31.748,43.546-70.849,46.691-112.528H497V271z"/>
<path style="fill:#D2E0E4;" d="M241,15v45.569c-42.785,3.253-81.769,20.309-112.513,46.705L96.191,74.979L74.979,96.191
	l32.296,32.296C80.878,159.231,63.822,198.215,60.569,241H15v30h45.568c3.145,41.679,19.368,80.779,46.691,112.528l-32.277,32.277
	l21.213,21.213l74.244-74.245l-21.213-21.213l-20.677,20.677c-7.593-9.07-14.134-18.821-19.559-29.108l27.102-11.226l-11.48-27.717
	l-27.129,11.237c-3.464-11.12-5.752-22.644-6.805-34.423H120v-30H90.685c1.068-11.871,3.38-23.388,6.824-34.413l27.103,11.226
	l11.48-27.717l-27.058-11.208c5.483-10.407,12.035-20.166,19.516-29.126l20.506,20.506l21.213-21.213l-20.506-20.506
	c8.96-7.481,18.718-14.033,29.125-19.516l11.208,27.058l27.717-11.48l-11.226-27.103c11.024-3.444,22.542-5.756,34.413-6.824V120h15
	V90V60V15H241z"/>
<polygon style="fill:#FF063C;" points="271,181 256,181 246,256 256,437 271,437 "/>
<rect x="241" y="181" style="fill:#FF4A3D;" width="15" height="256"/>
<path style="fill:#010409;" d="M256,211l-20,45l20,45c24.853,0,45-20.147,45-45S280.853,211,256,211z"/>
<path style="fill:#4F575B;" d="M211,256c0,24.853,20.147,45,45,45v-90C231.147,211,211,231.147,211,256z"/>
<path style="fill:#838E92;" d="M256,0l-20,15l20,15c124.816,0,226,101.184,226,226S380.816,482,256,482l-20,15l20,15
	c141.385,0,256-114.615,256-256S397.385,0,256,0z"/>
<path style="fill:#9DA9AD;" d="M30,256C30,131.184,131.184,30,256,30V0C114.615,0,0,114.615,0,256s114.615,256,256,256v-30
	C131.184,482,30,380.816,30,256z"/>
<g>
</g>
<g>
</g>
<g>
</g>
<g>
</g>
<g>
</g>
<g>
</g>
<g>
</g>
<g>
</g>
<g>
</g>
<g>
</g>
<g>
</g>
<g>
</g>
<g>
</g>
<g>
</g>
<g>
</g>
</svg>
