<svg height="512pt" viewBox="0 -6 512 511" width="512pt" xmlns="http://www.w3.org/2000/svg"><g fill="#fec001"><path d="m39 202.5h74.59375v30h-74.59375zm0 0"/><path d="m60.570312 121.992188 15-25.980469 64.597657 37.296875-15 25.980468zm0 0"/><path d="m241 .5h30v74.59375h-30zm0 0"/><path d="m134.503906 37.070312 25.980469-15 37.296875 64.597657-25.976562 15zm0 0"/></g><path d="m398.40625 202.5h74.59375v30h-74.59375zm0 0" fill="#ffab00"/><path d="m371.816406 133.304688 64.601563-37.296876 15 25.980469-64.601563 37.296875zm0 0" fill="#ffab00"/><path d="m314.210938 86.679688 37.296874-64.597657 25.980469 15-37.296875 64.597657zm0 0" fill="#ffab00"/><path d="m256 .5h15v74.59375h-15zm0 0" fill="#ffab00"/><path d="m256 374.5c-86.570312 0-157-70.429688-157-157s70.429688-157 157-157 157 70.429688 157 157-70.429688 157-157 157zm0 0" fill="#ffdf48"/><path d="m256 60.5v314c86.570312 0 157-70.429688 157-157s-70.429688-157-157-157zm0 0" fill="#fec001"/><path d="m512 498.5h-512v-207.332031l31.171875-19.402344c19.757813-12.296875 44.300781-12.292969 64.054687 0 9.976563 6.210937 22.371094 6.207031 32.347657 0 19.753906-12.296875 44.296875-12.296875 64.054687 0 9.976563 6.210937 22.371094 6.207031 32.347656 0 19.753907-12.296875 44.296876-12.296875 64.050782 0 9.976562 6.210937 22.371094 6.210937 32.347656 0 19.753906-12.296875 44.296875-12.296875 64.054688 0 9.972656 6.210937 22.371093 6.210937 32.347656 0 19.753906-12.296875 44.296875-12.296875 64.050781 0l31.171875 19.402344zm0 0" fill="#00a5ff"/><path d="m512 291.167969-31.175781-19.402344c-19.753907-12.296875-44.296875-12.296875-64.050781 0-9.976563 6.210937-22.375 6.210937-32.347657 0-19.757812-12.296875-44.296875-12.296875-64.054687 0-9.976563 6.210937-22.367188 6.210937-32.347656 0-9.875-6.148437-20.949219-9.222656-32.023438-9.222656v235.957031h256zm0 0" fill="#08f"/><path d="m304.199219 372.457031c-11.074219 0-22.148438-3.074219-32.023438-9.222656-9.980469-6.210937-22.375-6.210937-32.347656 0-19.757813 12.296875-44.300781 12.292969-64.054687 0-9.976563-6.210937-22.371094-6.207031-32.347657 0-19.753906 12.296875-44.300781 12.296875-64.054687 0l15.855468-25.46875c9.972657 6.207031 22.371094 6.210937 32.347657 0 19.753906-12.296875 44.296875-12.296875 64.050781 0 9.980469 6.207031 22.371094 6.207031 32.351562 0 19.75-12.296875 44.292969-12.296875 64.050782 0 9.976562 6.207031 22.371094 6.207031 32.347656 0 19.753906-12.296875 44.296875-12.296875 64.050781 0 9.980469 6.210937 22.375 6.207031 32.347657 0l15.855468 25.46875c-19.753906 12.296875-44.296875 12.296875-64.054687 0-9.976563-6.210937-22.371094-6.207031-32.347657 0-9.875 6.148437-20.953124 9.222656-32.027343 9.222656zm0 0" fill="#cae8f9"/><path d="m304.199219 438.457031c-11.074219 0-22.148438-3.074219-32.027344-9.222656l15.855469-25.46875c9.976562 6.207031 22.371094 6.207031 32.347656 0 19.753906-12.296875 44.296875-12.296875 64.054688 0 9.972656 6.207031 22.367187 6.210937 32.347656 0l15.851562 25.46875c-19.757812 12.296875-44.300781 12.296875-64.054687 0-9.972657-6.207031-22.371094-6.210937-32.347657 0-9.875 6.148437-20.953124 9.222656-32.027343 9.222656zm0 0" fill="#a3d9f6"/><path d="m207.800781 438.457031c-11.078125 0-22.148437-3.074219-32.027343-9.222656-9.976563-6.210937-22.371094-6.210937-32.347657 0-19.753906 12.296875-44.296875 12.296875-64.050781 0l15.851562-25.46875c9.976563 6.210937 22.375 6.207031 32.347657 0 19.753906-12.296875 44.296875-12.296875 64.054687 0 9.976563 6.207031 22.371094 6.207031 32.347656 0l15.851563 25.46875c-9.878906 6.148437-20.957031 9.222656-32.027344 9.222656zm0 0" fill="#cae8f9"/><path d="m288.027344 337.765625c-9.878906-6.148437-20.953125-9.222656-32.027344-9.222656v30.035156c5.59375 0 11.1875 1.550781 16.175781 4.65625 9.875 6.148437 20.949219 9.222656 32.023438 9.222656s22.148437-3.074219 32.027343-9.222656c9.972657-6.207031 22.371094-6.207031 32.347657 0 19.753906 12.296875 44.296875 12.296875 64.050781 0l-15.851562-25.46875c-9.972657 6.210937-22.371094 6.210937-32.347657 0-19.753906-12.296875-44.296875-12.296875-64.054687 0-9.976563 6.210937-22.367188 6.210937-32.34375 0zm0 0" fill="#a3d9f6"/></svg>